<svg xmlns="http://www.w3.org/2000/svg" width="512" height="512" viewBox="0 0 512 512">
  <defs>
    <linearGradient id="bg" x1="0%" y1="0%" x2="100%" y2="100%">
      <stop offset="0%" style="stop-color:#0f172a;stop-opacity:1" />
      <stop offset="100%" style="stop-color:#111827;stop-opacity:1" />
    </linearGradient>
    <linearGradient id="accent" x1="0%" y1="0%" x2="100%" y2="100%">
      <stop offset="0%" style="stop-color:#3B82F6;stop-opacity:1" />
      <stop offset="100%" style="stop-color:#8B5CF6;stop-opacity:1" />
    </linearGradient>
    <linearGradient id="glow" x1="0%" y1="0%" x2="100%" y2="100%">
      <stop offset="0%" style="stop-color:#60A5FA;stop-opacity:0.3" />
      <stop offset="100%" style="stop-color:#A78BFA;stop-opacity:0.3" />
    </linearGradient>
  </defs>
  
  <!-- Background -->
  <rect width="512" height="512" rx="76.8" fill="url(#bg)"/>
  
  <!-- Glow circle behind play button -->
  <circle cx="256" cy="256" r="131.072" fill="url(#glow)" opacity="0.5"/>
  
  <!-- Outer ring -->
  <circle cx="256" cy="256" r="143.35999999999999" fill="none" stroke="url(#accent)" stroke-width="10.24" opacity="0.8"/>
  
  <!-- Inner gradient circle -->
  <circle cx="256" cy="256" r="114.68800000000002" fill="url(#accent)" opacity="0.15"/>
  
  <!-- Play button triangle -->
  <polygon points="219.136,194.56 329.728,256 219.136,317.44" fill="url(#accent)"/>
  
  <!-- Film strip holes - left side -->
  <rect x="83.968" y="190.464" width="24.576" height="24.576" rx="4.9152000000000005" fill="#3B82F6" opacity="0.5"/>
  <rect x="83.968" y="239.61599999999999" width="24.576" height="24.576" rx="4.9152000000000005" fill="#3B82F6" opacity="0.5"/>
  <rect x="83.968" y="288.76800000000003" width="24.576" height="24.576" rx="4.9152000000000005" fill="#3B82F6" opacity="0.5"/>
  
  <!-- Film strip holes - right side -->
  <rect x="403.456" y="190.464" width="24.576" height="24.576" rx="4.9152000000000005" fill="#8B5CF6" opacity="0.5"/>
  <rect x="403.456" y="239.61599999999999" width="24.576" height="24.576" rx="4.9152000000000005" fill="#8B5CF6" opacity="0.5"/>
  <rect x="403.456" y="288.76800000000003" width="24.576" height="24.576" rx="4.9152000000000005" fill="#8B5CF6" opacity="0.5"/>
</svg>