<svg xmlns="http://www.w3.org/2000/svg" width="512" height="512" viewBox="0 0 512 512">
  <defs>
    <linearGradient id="bg" x1="0%" y1="0%" x2="100%" y2="100%">
      <stop offset="0%" style="stop-color:#0f172a;stop-opacity:1" />
      <stop offset="100%" style="stop-color:#111827;stop-opacity:1" />
    </linearGradient>
    <linearGradient id="accent" x1="0%" y1="0%" x2="100%" y2="100%">
      <stop offset="0%" style="stop-color:#3B82F6;stop-opacity:1" />
      <stop offset="100%" style="stop-color:#8B5CF6;stop-opacity:1" />
    </linearGradient>
    <linearGradient id="glow" x1="0%" y1="0%" x2="100%" y2="100%">
      <stop offset="0%" style="stop-color:#60A5FA;stop-opacity:0.3" />
      <stop offset="100%" style="stop-color:#A78BFA;stop-opacity:0.3" />
    </linearGradient>
  </defs>
  
  <!-- Background -->
  <rect width="512" height="512" rx="76.8" fill="url(#bg)"/>
  
  <!-- Glow circle behind play button -->
  <circle cx="256" cy="256" r="163.84" fill="url(#glow)" opacity="0.5"/>
  
  <!-- Outer ring -->
  <circle cx="256" cy="256" r="179.2" fill="none" stroke="url(#accent)" stroke-width="10.24" opacity="0.8"/>
  
  <!-- Inner gradient circle -->
  <circle cx="256" cy="256" r="143.36" fill="url(#accent)" opacity="0.15"/>
  
  <!-- Play button triangle -->
  <polygon points="209.92000000000002,179.2 348.15999999999997,256 209.92000000000002,332.8" fill="url(#accent)"/>
  
  <!-- Film strip holes - left side -->
  <rect x="40.96" y="174.07999999999998" width="30.72" height="30.72" rx="6.144" fill="#3B82F6" opacity="0.5"/>
  <rect x="40.96" y="235.52" width="30.72" height="30.72" rx="6.144" fill="#3B82F6" opacity="0.5"/>
  <rect x="40.96" y="296.96" width="30.72" height="30.72" rx="6.144" fill="#3B82F6" opacity="0.5"/>
  
  <!-- Film strip holes - right side -->
  <rect x="440.32000000000005" y="174.07999999999998" width="30.72" height="30.72" rx="6.144" fill="#8B5CF6" opacity="0.5"/>
  <rect x="440.32000000000005" y="235.52" width="30.72" height="30.72" rx="6.144" fill="#8B5CF6" opacity="0.5"/>
  <rect x="440.32000000000005" y="296.96" width="30.72" height="30.72" rx="6.144" fill="#8B5CF6" opacity="0.5"/>
</svg>